# Blender v2.79 (sub 0) OBJ File: 'Low_poly_straight_arrow.blend'
# www.blender.org
mtllib Low_poly_straight_arrow.mtl
o arrow_yellow_Plane.003
v 0.590895 -0.209854 -0.000000
v 0.770150 -0.209854 -0.000000
v 0.501558 0.765584 0.000000
v 0.859487 0.765584 0.000000
v 0.680522 -0.209854 -0.000000
v 0.680522 1.088437 0.000000
v 0.590970 0.765584 0.000000
v 0.770148 0.765582 0.000000
v 0.680522 0.765584 0.000000
v 0.590895 -0.209854 0.028146
v 0.770150 -0.209854 0.028146
v 0.501558 0.765584 0.028146
v 0.859487 0.765584 0.028146
v 0.680522 -0.209854 0.028146
v 0.680522 1.088437 0.028146
v 0.590970 0.765584 0.028146
v 0.770148 0.765582 0.028146
v 0.680522 0.765584 0.028146
vn 0.0000 0.0000 -1.0000
vn -0.0000 -0.0000 1.0000
vn 0.0000 -1.0000 0.0000
vn 0.8746 0.4848 0.0000
vn -0.8746 0.4848 0.0000
vn -1.0000 0.0001 0.0000
vn 1.0000 0.0000 0.0000
usemtl yellow
s off
f 9//1 6//1 4//1 8//1
f 3//1 6//1 9//1 7//1
f 1//1 7//1 9//1 5//1
f 5//1 9//1 8//1 2//1
f 18//2 17//2 13//2 15//2
f 12//2 16//2 18//2 15//2
f 10//2 14//2 18//2 16//2
f 14//2 11//2 17//2 18//2
f 1//3 5//3 14//3 10//3
f 5//3 2//3 11//3 14//3
f 8//3 4//3 13//3 17//3
f 4//4 6//4 15//4 13//4
f 6//5 3//5 12//5 15//5
f 3//3 7//3 16//3 12//3
f 7//6 1//6 10//6 16//6
f 2//7 8//7 17//7 11//7
o arrow_red_Plane.002
v -0.827020 -0.209854 -0.000000
v -0.647765 -0.209854 -0.000000
v -0.916357 0.765584 0.000000
v -0.558428 0.765584 0.000000
v -0.737392 -0.209854 -0.000000
v -0.737392 1.088437 0.000000
v -0.826945 0.765584 0.000000
v -0.647767 0.765582 0.000000
v -0.737392 0.765584 0.000000
v -0.827020 -0.209854 0.028146
v -0.647765 -0.209854 0.028146
v -0.916357 0.765584 0.028146
v -0.558428 0.765584 0.028146
v -0.737392 -0.209854 0.028146
v -0.737392 1.088437 0.028146
v -0.826945 0.765584 0.028146
v -0.647767 0.765582 0.028146
v -0.737392 0.765584 0.028146
vn 0.0000 0.0000 -1.0000
vn -0.0000 -0.0000 1.0000
vn 0.0000 -1.0000 0.0000
vn 0.8746 0.4848 0.0000
vn -0.8746 0.4848 0.0000
vn -1.0000 0.0001 0.0000
vn 1.0000 0.0000 0.0000
usemtl red
s off
f 27//8 24//8 22//8 26//8
f 21//8 24//8 27//8 25//8
f 19//8 25//8 27//8 23//8
f 23//8 27//8 26//8 20//8
f 36//9 35//9 31//9 33//9
f 30//9 34//9 36//9 33//9
f 28//9 32//9 36//9 34//9
f 32//9 29//9 35//9 36//9
f 19//10 23//10 32//10 28//10
f 23//10 20//10 29//10 32//10
f 26//10 22//10 31//10 35//10
f 22//11 24//11 33//11 31//11
f 24//12 21//12 30//12 33//12
f 21//10 25//10 34//10 30//10
f 25//13 19//13 28//13 34//13
f 20//14 26//14 35//14 29//14
o arrow_blue_Plane.001
v 0.129883 -0.209854 -0.000000
v 0.309138 -0.209854 -0.000000
v 0.040547 0.765584 0.000000
v 0.398475 0.765584 0.000000
v 0.219511 -0.209854 -0.000000
v 0.219511 1.088437 0.000000
v 0.129959 0.765584 0.000000
v 0.309136 0.765582 0.000000
v 0.219511 0.765584 0.000000
v 0.129883 -0.209854 0.028146
v 0.309138 -0.209854 0.028146
v 0.040547 0.765584 0.028146
v 0.398475 0.765584 0.028146
v 0.219511 -0.209854 0.028146
v 0.219511 1.088437 0.028146
v 0.129959 0.765584 0.028146
v 0.309136 0.765582 0.028146
v 0.219511 0.765584 0.028146
vn 0.0000 0.0000 -1.0000
vn -0.0000 -0.0000 1.0000
vn 0.0000 -1.0000 0.0000
vn 0.8746 0.4848 0.0000
vn -0.8746 0.4848 0.0000
vn -1.0000 0.0001 0.0000
vn 1.0000 0.0000 0.0000
usemtl blue
s off
f 45//15 42//15 40//15 44//15
f 39//15 42//15 45//15 43//15
f 37//15 43//15 45//15 41//15
f 41//15 45//15 44//15 38//15
f 54//16 53//16 49//16 51//16
f 48//16 52//16 54//16 51//16
f 46//16 50//16 54//16 52//16
f 50//16 47//16 53//16 54//16
f 37//17 41//17 50//17 46//17
f 41//17 38//17 47//17 50//17
f 44//17 40//17 49//17 53//17
f 40//18 42//18 51//18 49//18
f 42//19 39//19 48//19 51//19
f 39//17 43//17 52//17 48//17
f 43//20 37//20 46//20 52//20
f 38//21 44//21 53//21 47//21
o arrow_green_Plane
v -0.335436 -0.209854 -0.000000
v -0.156181 -0.209854 -0.000000
v -0.424773 0.765584 0.000000
v -0.066845 0.765584 0.000000
v -0.245809 -0.209854 -0.000000
v -0.245809 1.088437 0.000000
v -0.335361 0.765584 0.000000
v -0.156183 0.765582 0.000000
v -0.245809 0.765584 0.000000
v -0.335436 -0.209854 0.028146
v -0.156181 -0.209854 0.028146
v -0.424773 0.765584 0.028146
v -0.066845 0.765584 0.028146
v -0.245809 -0.209854 0.028146
v -0.245809 1.088437 0.028146
v -0.335361 0.765584 0.028146
v -0.156183 0.765582 0.028146
v -0.245809 0.765584 0.028146
vn 0.0000 0.0000 -1.0000
vn -0.0000 -0.0000 1.0000
vn 0.0000 -1.0000 0.0000
vn 0.8746 0.4848 0.0000
vn -0.8746 0.4848 0.0000
vn -1.0000 0.0001 0.0000
vn 1.0000 0.0000 0.0000
usemtl green
s off
f 63//22 60//22 58//22 62//22
f 57//22 60//22 63//22 61//22
f 55//22 61//22 63//22 59//22
f 59//22 63//22 62//22 56//22
f 72//23 71//23 67//23 69//23
f 66//23 70//23 72//23 69//23
f 64//23 68//23 72//23 70//23
f 68//23 65//23 71//23 72//23
f 55//24 59//24 68//24 64//24
f 59//24 56//24 65//24 68//24
f 62//24 58//24 67//24 71//24
f 58//25 60//25 69//25 67//25
f 60//26 57//26 66//26 69//26
f 57//24 61//24 70//24 66//24
f 61//27 55//27 64//27 70//27
f 56//28 62//28 71//28 65//28
